<?xml version='1.0' encoding='utf-8'?>
<svg xmlns="http://www.w3.org/2000/svg" font-family="Andale Mono,AndaleMono,Consolas,monospace" width="975px" height="550px" font-size="16px">
<style>
.keyColor {fill: #007f00;}
.valueColor {fill: #006666;}
.addColor {fill: #008055;}
.delColor {fill: #cc0000;}
.commentColor {fill: #004d00;}
text, tspan {white-space: pre;}
</style>

<rect width="970px" height="530px" fill="#e5fff2" rx="15" />

<g transform="scale(4)">
  <g id="pacmanGroup">
    
    <path id="pacman" fill="#FFD700">
      <animate attributeName="d" dur="0.5s" repeatCount="indefinite" keyTimes="0;0.5;1" values="                  M50,20 L57.07,14.93 A8,8 0 1,0 57.07,25.07 Z;                    M42,20 A8,8 0 1,0 58,20 A8,8 0 1,0 42,20 Z;                    M50,20 L57.07,14.93 A8,8 0 1,0 57.07,25.07 Z                " />
    </path>
    
    <animateTransform attributeName="transform" type="translate" values="0,0;0,100;0,0" dur="8s" repeatCount="indefinite" />
    
    <animateTransform attributeName="transform" type="rotate" calcMode="discrete" values="90 50 20; -90 50 20; 90 50 20" keyTimes="0;0.5;1" dur="8s" repeatCount="indefinite" additive="sum" />
  </g>

  
  
  <g>
    
    <animateTransform attributeName="transform" type="translate" values="0,0;0,100;0,0" dur="8s" begin="1s" repeatCount="indefinite" />
    
    <animateTransform attributeName="transform" type="translate" additive="sum" values="0,0;6,0;-6,0;0,0" keyTimes="0;0.33;0.66;1" dur="2s" begin="1s" repeatCount="indefinite" />
    <path d="M14,10              a4,4 0 0,1 8,0              v8              L20,16              L18,18              L16,16              L14,18              Z" fill="#FF0000" />
    <circle cx="17" cy="13" r="1.6" fill="#FFF" />
    <circle cx="21" cy="13" r="1.6" fill="#FFF" />
    <circle cx="17" cy="13" r="0.8" fill="#000" />
    <circle cx="21" cy="13" r="0.8" fill="#000" />
  </g>

  
  <g>
    <animateTransform attributeName="transform" type="translate" values="0,0;0,100;0,0" dur="8s" begin="2s" repeatCount="indefinite" />
    <animateTransform attributeName="transform" type="translate" additive="sum" values="0,0;6,0;-6,0;0,0" keyTimes="0;0.33;0.66;1" dur="2s" begin="2s" repeatCount="indefinite" />
    <path d="M34,10              a4,4 0 0,1 8,0              v8              L40,16              L38,18              L36,16              L34,18              Z" fill="#FF3399" />
    <circle cx="37" cy="13" r="1.6" fill="#FFF" />
    <circle cx="41" cy="13" r="1.6" fill="#FFF" />
    <circle cx="37" cy="13" r="0.8" fill="#000" />
    <circle cx="41" cy="13" r="0.8" fill="#000" />
  </g>

  
  <g>
    <animateTransform attributeName="transform" type="translate" values="0,0;0,100;0,0" dur="8s" begin="3s" repeatCount="indefinite" />
    <animateTransform attributeName="transform" type="translate" additive="sum" values="0,0;6,0;-6,0;0,0" keyTimes="0;0.33;0.66;1" dur="2s" begin="3s" repeatCount="indefinite" />
    <path d="M54,10              a4,4 0 0,1 8,0              v8              L60,16              L58,18              L56,16              L54,18              Z" fill="#0000FF" />
    <circle cx="57" cy="13" r="1.6" fill="#FFF" />
    <circle cx="61" cy="13" r="1.6" fill="#FFF" />
    <circle cx="57" cy="13" r="0.8" fill="#000" />
    <circle cx="61" cy="13" r="0.8" fill="#000" />
  </g>

  
  <g>
    <animateTransform attributeName="transform" type="translate" values="0,0;0,100;0,0" dur="8s" begin="4s" repeatCount="indefinite" />
    <animateTransform attributeName="transform" type="translate" additive="sum" values="0,0;6,0;-6,0;0,0" keyTimes="0;0.33;0.66;1" dur="2s" begin="4s" repeatCount="indefinite" />
    <path d="M74,10              a4,4 0 0,1 8,0              v8              L80,16              L78,18              L76,16              L74,18              Z" fill="#FF6F00" />
    <circle cx="77" cy="13" r="1.6" fill="#FFF" />
    <circle cx="81" cy="13" r="1.6" fill="#FFF" />
    <circle cx="77" cy="13" r="0.8" fill="#000" />
    <circle cx="81" cy="13" r="0.8" fill="#000" />
  </g>
</g>

<text x="370" y="30" fill="#1a1a1a">
<tspan x="370" y="30">parth@solanke (parthsolanke)</tspan>
<tspan x="370" y="50">——————</tspan>
<tspan x="370" y="70" class="keyColor">Description</tspan>: <tspan class="valueColor">Software Developer</tspan>
<tspan x="760" y="90" class="valueColor">(30.63%)</tspan>
<tspan x="840" y="90" class="valueColor">(22.46y)</tspan>
<tspan x="680" y="90" class="valueColor">(8204d)</tspan>
<tspan x="370" y="90" class="keyColor">Uptime</tspan>: <tspan class="valueColor">22 years, 5 months, 17 days</tspan>
<tspan x="370" y="110" class="keyColor">Host</tspan>: <tspan class="valueColor">SPPU</tspan><tspan class="commentColor"> #(India)</tspan>
<tspan x="370" y="130" class="keyColor">Kernel</tspan>: <tspan class="valueColor">Web Development</tspan><tspan class="commentColor"> #FullStack</tspan>
<tspan x="370" y="160" class="keyColor">Languages</tspan>.<tspan class="keyColor">Programming</tspan>: <tspan class="valueColor">JavaScript, TypeScript, Python</tspan>
<tspan x="370" y="220" class="keyColor">Tools</tspan>.<tspan class="keyColor">Frontend</tspan>: <tspan class="valueColor">Next.js, React, Tailwind CSS</tspan>
<tspan x="370" y="240" class="keyColor">Tools</tspan>.<tspan class="keyColor">Backend</tspan>: <tspan class="valueColor">Node.js, FastAPI, SQL, Docker, AWS</tspan>
<tspan x="370" y="180" class="keyColor">Languages</tspan>.<tspan class="keyColor">Real</tspan>: <tspan class="valueColor">Hindi, English, Marathi</tspan>
<tspan x="370" y="300" class="keyColor">Hobbies</tspan>.<tspan class="keyColor">Software</tspan>: <tspan class="valueColor">Web Apps, SASS Development, ML</tspan>
<tspan x="370" y="280" class="keyColor">Hobbies</tspan>.<tspan class="keyColor">Hardware</tspan>: <tspan class="valueColor">Thinking, Reading, Movies</tspan>
<tspan x="370" y="330" class="keyColor">Contact</tspan>:
<tspan x="370" y="350">——————</tspan>
<tspan x="370" y="370" class="keyColor">Web</tspan>: <tspan class="valueColor">parthsolanke.in</tspan><tspan class="commentColor"> #(Doesn't work)</tspan>
<tspan x="370" y="390" class="keyColor">LinkedIn</tspan>: <tspan class="valueColor">in/parthsolanke</tspan>
<tspan x="370" y="410" class="keyColor">Email</tspan>: <tspan class="valueColor">parthsolanke2002@gmail.com</tspan>
<tspan x="370" y="450" class="keyColor">GitHub Stats</tspan>:
<tspan x="370" y="470">——————</tspan>
<tspan x="370" y="490" class="keyColor">Repos</tspan>: <tspan class="valueColor">35</tspan>
<tspan x="370" y="510" class="keyColor">Followers</tspan>: <tspan class="valueColor">43</tspan>
<tspan x="520" y="510" class="keyColor">|   Stars</tspan>: <tspan class="valueColor">30</tspan>
<tspan x="465" y="490">{
<tspan x="480" y="490" class="keyColor">Contributed</tspan>: <tspan class="valueColor">0</tspan>
}</tspan>
<tspan x="660" y="510" class="keyColor">|   Commits</tspan>: <tspan class="valueColor">0</tspan>
<tspan x="660" y="490" class="keyColor">|   Merged PRs</tspan>: <tspan class="valueColor">12 (92%)</tspan>
</text>
</svg>